# xmcd CD database file
#
# Track frame offsets:
#	150
#	25837
#	57762
#	81807
#	111300
#	135512
#	169757
#	195595
#	226257
#	255300
#	286007
#
# Disc length: 4207 seconds
#
# Revision: 0
# Processed by: cddbd v1.5.2PL0 Copyright (c) Steve Scherf et al.
# Submitted via: CDex 1.70beta2
#
DISCID=85106d0b
DTITLE=Dexter gordon - The complet Blue Note 60's sessions vol.3
DYEAR=1900
DGENRE=Jazz
TTITLE0=Three o'clock in the morning
TTITLE1=Second balcony jump
TTITLE2=Where are you
TTITLE3=Cheese cake
TTITLE4=I guess I'll hang my tears out to dry
TTITLE5=Love for Sale
TTITLE6=McSplivens
TTITLE7=The backbone
TTITLE8=Soy calif
TTITLE9=Until the real thing come along
TTITLE10=You stepped out of a dream
EXTD=
EXTT0=
EXTT1=
EXTT2=
EXTT3=
EXTT4=
EXTT5=
EXTT6=
EXTT7=
EXTT8=
EXTT9=
EXTT10=
PLAYORDER=
